<svg xmlns="http://www.w3.org/2000/svg" width="128" height="128" viewBox="0 0 128 128">
  <defs>
    <linearGradient id="g" x1="0" y1="0" x2="1" y2="1">
      <stop offset="0" stop-color="#6ef3c5" stop-opacity="0.9"/>
      <stop offset="1" stop-color="#ffcc66" stop-opacity="0.9"/>
    </linearGradient>
  </defs>
  <rect x="10" y="10" width="108" height="108" rx="28" fill="rgba(15,23,42,0.95)" stroke="rgba(255,255,255,0.16)" stroke-width="2"/>
  <path d="M28 88V40h22c14 0 24 8 24 20 0 13-10 20-24 20H40v8H28zm12-19h10c7 0 12-4 12-9 0-6-5-9-12-9H40v18z" fill="url(#g)"/>
  <path d="M78 88V40h22c14 0 24 8 24 20 0 13-10 20-24 20H90v8H78zm12-19h10c7 0 12-4 12-9 0-6-5-9-12-9H90v18z" fill="rgba(255,255,255,0.13)"/>
</svg>

